<svg aria-hidden="true" style="position: absolute; width: 0; height: 0; overflow: hidden;" version="1.1"
     xmlns="http://www.w3.org/2000/svg">
    <defs>
        <symbol id="icon-train-ice" viewBox="0 0 18 10">
            <path
                  d="M4.3579 4.9781c-0.4772,2.8024 0.6168,4.1979 3.1041,4.2241 0.8818,0.0092 1.8783,-0.2956 1.9975,-0.3663l0.229 -1.2432c-0.555,0.1967 -1.0499,0.3536 -1.7118,0.3412 -0.8359,-0.0157 -1.6762,-0.2365 -1.6981,-1.7361 -0.0315,-2.1452 0.7768,-3.9344 2.7285,-3.9707 0.6681,-0.0125 0.9846,0.1048 1.5886,0.3435l0.241 -1.3081c-0.4988,-0.2078 -0.8895,-0.3933 -2.0459,-0.4144 -2.4648,-0.0449 -4.0281,1.7523 -4.4329,4.13zm-3.6799 4.12l1.9109 -0.0011 1.4863 -8.0684 -1.9371 0 -1.4601 8.0695zm11.2907 -8.0695l-1.5412 8.0695 5.6172 -0.0006 0.2395 -1.3003 -3.7164 0 0.337 -2.0365 2.7499 0.0005 0.2488 -1.3508 -2.7181 -0.0018 0.4078 -1.9854 3.5066 -0.0002 0.2568 -1.3943 -5.3879 -0.0001z"/>
        </symbol>


        <symbol id="icon-train-euronight" viewBox="0 0 92 32">
            <path
                    d="M30.494 32l21.294-32h13.852v18.848l12.508-18.848h13.852l-21.191 32h-13.955v-18.641l-12.404 18.641h-13.955zM15.712 0h33.285l-5.582 8.388h-19.33l-2.791 4.142h19.434l-4.652 6.938h-19.434l-2.791 4.142h19.434l-5.582 8.388h-19.434l-8.27-8.388 15.712-23.612z">
            </path>
        </symbol>
        <symbol id="icon-train-expresszvonat" viewBox="0 0 84 32">
            <path
                    d="M43.659 12.427l6.637 9.735-19.704 9.735h14l9.334-4.557 3.111 4.557h14l-6.741-9.735 19.704-9.735h-13.896l-9.333 4.66-3.215-4.66h-13.896zM15.763 0h33.393l-5.6 8.388h-19.393l-2.8 4.142h19.496l-4.667 6.938h-19.496l-2.8 4.142h19.496l-5.496 8.388h-19.6l-8.296-8.388 15.763-23.612z">
            </path>
        </symbol>
        <symbol id="icon-train-gyorsvonat" viewBox="0 0 76 32">
            <path
                    d="M36.813 12.427l8.744 8.388-7.773 11.184h13.062l7.773-11.184 17.381-8.388h-14.574l-6.801 3.625-3.347-3.625h-14.466zM16.517 0h20.295l8.744 8.388h-20.403l-10.687 15.327h13.062l2.915-4.142h-10.148l2.915-4.246h10.58l5.83 5.592-7.665 11.081h-23.21l-8.744-8.388 16.517-23.612z">
            </path>
        </symbol>
        <symbol id="icon-train-intercity" viewBox="0 0 76 32">
            <path
                    d="M33.898 0h42.102l-5.83 8.388h-27.528l-10.579 15.327h27.528l-5.83 8.285h-27.528l-8.744-8.388 16.409-23.612zM0 23.612l16.409-23.612h14.574l-22.239 32-8.744-8.388z">
            </path>
        </symbol>
        <symbol id="icon-train-interregio" viewBox="0 0 76 32">
            <path
                    d="M33.946 0l-22.27 32h14.486l16.432-23.612h13.081l-2.919 4.142h-10.162l-6.054 8.595 11.459 10.874h13.081l-13.081-12.531h14.486l13.514-19.469h-42.054zM0 23.612l16.432-23.612h14.595l-22.27 32-8.757-8.388z">
            </path>
        </symbol>
        <symbol id="icon-train-railjet" viewBox="0 0 35 32">
            <path
                    d="M28.741 29.076c-0.335 1.504-3.603 2.924-7.458 2.924-1.006 0-1.676-0.251-1.592-0.501l5.447-23.896c0.084-0.251 0.838-0.585 1.843-0.585h4.944c1.089 0 1.676 0.334 1.676 0.501l-4.86 21.556zM5.614 6.768h13.993c0.503 0 1.424 0.167 1.424 0.501-0.335 2.507-0.922 3.843-1.676 3.843h-6.117c-1.257 0-1.508 0.836-1.927 2.59l-2.765 11.112c-0.084 0.334-0.754 0.334-1.257 0.334h-6.201c-0.67 0-1.006-0.167-1.089-0.418 2.514-11.864 3.854-17.462 4.106-17.713s0.838-0.251 1.508-0.251zM33.601 0c1.005 0 1.676 0.334 1.592 0.501l-0.67 3.008c-0.084 0.418-1.257 0.585-1.927 0.585h-5.028c-1.006 0-1.592-0.334-1.592-0.585l0.67-3.008c0.084-0.251 0.838-0.501 1.843-0.501h5.111z">
            </path>
        </symbol>
        <symbol id="icon-train-sebesvonat" viewBox="0 0 44 32">
            <path
                    d="M36.475 19.469l-7.002-7.042h-7.943l2.822-4.142h19.648l-8.466-8.285h-19.648l-8.466 12.427 7.107 7.042h7.943l-2.822 4.142h-19.648l8.361 8.388h19.753l8.361-12.531z">
            </path>
        </symbol>
        <symbol id="icon-train-szemelyvonat" viewBox="0 0 52 32">
            <path
                    d="M38.444 12.49h13.556l-7.284 11.148h6.778l-5.26 8.361h-13.658l8.195-12.49-4.047-4.129 1.72-2.89zM35.307 19.51l-6.778-7.019h-7.689l2.732-4.129h19.020l-8.195-8.361h-19.019l-8.195 12.49 6.778 6.916h7.689l-2.732 4.129h-18.918l8.195 8.361h19.019l8.093-12.387z">
            </path>
        </symbol>
        <symbol id="icon-train-euregio" viewBox="0 0 92 32">
            <path
                    d="M51.789 0l-15.712 23.612 8.373 8.388 15.712-23.612h12.508l-2.791 4.142h-9.717l-5.788 8.595 10.854 10.874h12.508l-12.508-12.531h13.852l12.921-19.469h-40.211zM15.712 0h33.285l-5.582 8.388h-19.33l-2.791 4.142h19.434l-4.652 6.938h-19.434l-2.791 4.142h19.434l8.373 8.388h-33.389l-8.27-8.388 15.712-23.612z">
            </path>
        </symbol>
        <symbol id="icon-train-eurocity" viewBox="0 0 92 32">
            <path
                    d="M15.712 0h33.285l-5.582 8.388h-19.33l-2.791 4.142h19.434l-4.652 6.938h-19.434l-2.791 4.142h19.434l8.373 8.388h-33.389l-8.27-8.388 15.712-23.612zM51.789 0h40.211l-5.582 8.388h-26.256l-10.234 15.327h26.36l-5.479 8.285h-26.359l-8.373-8.388 15.712-23.612z">
            </path>
        </symbol>
    </defs>
</svg>