
<svg width="539" height="335" viewBox="0 0 539 335" fill="none" xmlns="http://www.w3.org/2000/svg">
    <path d="M266.05 0.373047C204.15 0.373047 150.113 33.8602 121.106 83.6528H0.19873L15.1697 139.344H266.045C281.467 139.344 293.966 151.809 293.966 167.191C293.966 182.571 281.467 195.037 266.045 195.037H30.1346L45.1056 250.728H120.79C149.724 300.82 203.921 334.576 266.045 334.576C327.446 334.576 381.145 301.618 410.315 252.485H492.942L508.327 195.295H431.245C432.766 186.245 433.576 176.93 433.576 167.449C433.576 157.968 432.766 148.652 431.245 139.602H523.247L538.633 82.4125H410.317C381.147 33.2939 327.446 0.373047 266.047 0.373047H266.05ZM266.05 56.0643C327.74 56.0643 377.737 105.926 377.737 167.449C377.737 228.972 327.74 278.885 266.05 278.885C237.578 278.885 211.603 268.227 191.868 250.728H266.05C312.317 250.728 349.814 213.333 349.814 167.191C349.814 121.048 312.317 83.6528 266.05 83.6528H192.49C212.139 66.4755 237.873 56.0643 266.05 56.0643V56.0643Z" fill="#00EDAE"/>
</svg>
