<svg aria-hidden="true" style="position: absolute; width: 0; height: 0; overflow: hidden;" version="1.1"
     xmlns="http://www.w3.org/2000/svg">
    <defs>
        <symbol id="icon-train-re">
            <path d="m 53.29596,90.773624 h 12.98238 c 3.1378,0 5.63875,0.54398 7.49622,1.63192 2.54075,1.46608 3.80781,3.80118 3.80781,6.99868 0,3.482746 -1.08131,6.129646 -3.2373,7.947306 -1.2737,1.05478 -3.1378,1.89064 -5.57904,2.50759 1.60538,0.75625 2.81273,2.22233 3.61543,4.39822 l 4.42475,11.72859 h -8.63059 l -3.85425,-10.59421 c -0.45774,-1.26043 -0.96854,-2.14936 -1.53905,-2.67343 -0.67665,-0.59704 -1.63855,-0.89556 -2.88571,-0.89556 h -2.17589 l -2.7663,14.1632 h -8.49129 z m 5.51271,15.489966 h 4.39822 c 2.15599,0 3.7282,-0.45774 4.70337,-1.3732 0.49091,-0.45774 0.87567,-1.12112 1.16092,-1.98351 0.25209,-0.8027 0.37813,-1.62529 0.37813,-2.46115 0,-2.301936 -1.47271,-3.449586 -4.42476,-3.449586 H 60.5998 Z"/>
            <path d="m 98.79732,124.89798 c -1.26043,0.4909 -2.20906,0.82923 -2.83928,1.01498 -1.89063,0.5705 -3.90068,0.84912 -6.03014,0.84912 -3.97365,0 -6.89916,-1.03487 -8.7699,-3.09799 -1.51251,-1.67172 -2.26877,-3.94712 -2.26877,-6.83283 0,-3.07146 0.59041,-6.05668 1.77123,-8.93575 1.21399,-2.96532 3.1975,-5.20092 5.95717,-6.71343 2.12945,-1.18082 4.5707,-1.771226 7.33037,-1.771226 2.81937,0 5.0616,0.623576 6.71342,1.870736 1.70489,1.29359 2.55402,3.12453 2.55402,5.48617 0,3.96039 -2.34174,6.58074 -7.02521,7.87434 -2.16263,0.59704 -5.27389,0.96854 -9.34042,1.11448 -0.0332,0.3914 -0.0464,0.72972 -0.0464,1.01497 0,1.20073 0.30516,2.16263 0.92211,2.88571 0.70981,0.8226 2.14935,1.22726 4.32524,1.22726 1.52578,0 3.09136,-0.21892 4.68348,-0.66338 0.66338,-0.17248 1.72479,-0.52407 3.19087,-1.04151 z m -11.30403,-13.47992 0.82923,-0.0464 c 2.08302,-0.13931 3.71494,-0.37813 4.89576,-0.70982 1.81103,-0.51744 2.71986,-1.52578 2.71986,-3.02502 0,-1.91054 -0.98844,-2.85918 -2.95868,-2.85918 -2.03658,0 -3.51592,1.00834 -4.44466,3.02502 -0.39803,0.8624 -0.74299,2.06975 -1.04151,3.61543 z"/>
        </symbol>
        <symbol id="icon-train-euronight" viewBox="0 0 92 32">
            <path
                    d="M30.494 32l21.294-32h13.852v18.848l12.508-18.848h13.852l-21.191 32h-13.955v-18.641l-12.404 18.641h-13.955zM15.712 0h33.285l-5.582 8.388h-19.33l-2.791 4.142h19.434l-4.652 6.938h-19.434l-2.791 4.142h19.434l-5.582 8.388h-19.434l-8.27-8.388 15.712-23.612z">
            </path>
        </symbol>
        <symbol id="icon-train-expresszvonat" viewBox="0 0 84 32">
            <path
                    d="M43.659 12.427l6.637 9.735-19.704 9.735h14l9.334-4.557 3.111 4.557h14l-6.741-9.735 19.704-9.735h-13.896l-9.333 4.66-3.215-4.66h-13.896zM15.763 0h33.393l-5.6 8.388h-19.393l-2.8 4.142h19.496l-4.667 6.938h-19.496l-2.8 4.142h19.496l-5.496 8.388h-19.6l-8.296-8.388 15.763-23.612z">
            </path>
        </symbol>
        <symbol id="icon-train-gyorsvonat" viewBox="0 0 76 32">
            <path
                    d="M36.813 12.427l8.744 8.388-7.773 11.184h13.062l7.773-11.184 17.381-8.388h-14.574l-6.801 3.625-3.347-3.625h-14.466zM16.517 0h20.295l8.744 8.388h-20.403l-10.687 15.327h13.062l2.915-4.142h-10.148l2.915-4.246h10.58l5.83 5.592-7.665 11.081h-23.21l-8.744-8.388 16.517-23.612z">
            </path>
        </symbol>
        <symbol id="icon-train-intercity" viewBox="0 0 76 32">
            <path
                    d="M33.898 0h42.102l-5.83 8.388h-27.528l-10.579 15.327h27.528l-5.83 8.285h-27.528l-8.744-8.388 16.409-23.612zM0 23.612l16.409-23.612h14.574l-22.239 32-8.744-8.388z">
            </path>
        </symbol>
        <symbol id="icon-train-interregio" viewBox="0 0 76 32">
            <path
                    d="M33.946 0l-22.27 32h14.486l16.432-23.612h13.081l-2.919 4.142h-10.162l-6.054 8.595 11.459 10.874h13.081l-13.081-12.531h14.486l13.514-19.469h-42.054zM0 23.612l16.432-23.612h14.595l-22.27 32-8.757-8.388z">
            </path>
        </symbol>
        <symbol id="icon-train-railjet" viewBox="0 0 35 32">
            <path
                    d="M28.741 29.076c-0.335 1.504-3.603 2.924-7.458 2.924-1.006 0-1.676-0.251-1.592-0.501l5.447-23.896c0.084-0.251 0.838-0.585 1.843-0.585h4.944c1.089 0 1.676 0.334 1.676 0.501l-4.86 21.556zM5.614 6.768h13.993c0.503 0 1.424 0.167 1.424 0.501-0.335 2.507-0.922 3.843-1.676 3.843h-6.117c-1.257 0-1.508 0.836-1.927 2.59l-2.765 11.112c-0.084 0.334-0.754 0.334-1.257 0.334h-6.201c-0.67 0-1.006-0.167-1.089-0.418 2.514-11.864 3.854-17.462 4.106-17.713s0.838-0.251 1.508-0.251zM33.601 0c1.005 0 1.676 0.334 1.592 0.501l-0.67 3.008c-0.084 0.418-1.257 0.585-1.927 0.585h-5.028c-1.006 0-1.592-0.334-1.592-0.585l0.67-3.008c0.084-0.251 0.838-0.501 1.843-0.501h5.111z">
            </path>
        </symbol>
        <symbol id="icon-train-sebesvonat" viewBox="0 0 44 32">
            <path
                    d="M36.475 19.469l-7.002-7.042h-7.943l2.822-4.142h19.648l-8.466-8.285h-19.648l-8.466 12.427 7.107 7.042h7.943l-2.822 4.142h-19.648l8.361 8.388h19.753l8.361-12.531z">
            </path>
        </symbol>
        <symbol id="icon-train-szemelyvonat" viewBox="0 0 52 32">
            <path
                    d="M38.444 12.49h13.556l-7.284 11.148h6.778l-5.26 8.361h-13.658l8.195-12.49-4.047-4.129 1.72-2.89zM35.307 19.51l-6.778-7.019h-7.689l2.732-4.129h19.020l-8.195-8.361h-19.019l-8.195 12.49 6.778 6.916h7.689l-2.732 4.129h-18.918l8.195 8.361h19.019l8.093-12.387z">
            </path>
        </symbol>
        <symbol id="icon-train-euregio" viewBox="0 0 92 32">
            <path
                    d="M51.789 0l-15.712 23.612 8.373 8.388 15.712-23.612h12.508l-2.791 4.142h-9.717l-5.788 8.595 10.854 10.874h12.508l-12.508-12.531h13.852l12.921-19.469h-40.211zM15.712 0h33.285l-5.582 8.388h-19.33l-2.791 4.142h19.434l-4.652 6.938h-19.434l-2.791 4.142h19.434l8.373 8.388h-33.389l-8.27-8.388 15.712-23.612z">
            </path>
        </symbol>
        <symbol id="icon-train-eurocity" viewBox="0 0 92 32">
            <path
                    d="M15.712 0h33.285l-5.582 8.388h-19.33l-2.791 4.142h19.434l-4.652 6.938h-19.434l-2.791 4.142h19.434l8.373 8.388h-33.389l-8.27-8.388 15.712-23.612zM51.789 0h40.211l-5.582 8.388h-26.256l-10.234 15.327h26.36l-5.479 8.285h-26.359l-8.373-8.388 15.712-23.612z">
            </path>
        </symbol>
    </defs>
</svg>